<?xml version="1.0" encoding="utf-8"?>
<!DOCTYPE svg PUBLIC "-//W3C//DTD SVG 20010904//EN" "http://www.w3.org/TR/2001/REC-SVG-20010904/DTD/svg10.dtd">
<svg version="1.0" width="768pt" height="768pt" viewBox="0 0 768 768" preserveAspectRatio="xMidYMid meet" xmlns="http://www.w3.org/2000/svg">
  <g transform="translate(0,768)scale(.075,.075)">
    <path id="path1" d="M 0 -5120 l 0 5120 5120 0 5120 0 0 -5120 0 -5120 -5120 0 -5120 0 0 5120 z m 5646 -4240 c 323 19 769 113 1029 217 257 102 485 219 485 247 0 15 -165 170 -372 350 -242 209 -335 318 -429 505 -38 75 -99 238 -99 265 0 7 44 33 98 57 203 92 340 187 503 349 161 161 288 355 342 525 58 179 127 477 182 780 19 110 38 208 41 217 4 12 0 18 -10 18 -9 0 -16 -4 -16 -9 0 -15 -167 -186 -252 -258 -46 -39 -117 -93 -158 -120 -116 -77 -291 -128 -650 -187 -101 -17 -387 -35 -615 -40 -274 -6 -397 -36 -532 -127 -26 -18 -239 -224 -473 -457 -299 -300 -436 -430 -465 -443 -22 -9 -69 -23 -105 -29 -36 -6 -87 -16 -113 -21 -27 -5 -67 -9 -91 -9 -36 0 -50 -7 -97 -48 -31 -26 -94 -76 -140 -111 -46 -36 -97 -76 -113 -90 -103 -91 -116 -99 -178 -103 -51 -4 -65 -9 -85 -32 -41 -49 -21 -154 37 -184 40 -21 117 -10 148 22 24 23 27 34 26 86 l -1 60 81 68 c 45 38 137 112 205 165 l 124 97 120 0 119 0 -6 -32 c -3 -18 -10 -82 -16 -143 -13 -125 -24 -185 -44 -224 -8 -15 -59 -67 -113 -117 -154 -141 -159 -144 -208 -144 -56 0 -87 -14 -108 -50 -21 -34 -21 -70 -3 -115 18 -43 42 -55 106 -55 45 0 56 4 81 31 24 26 29 40 29 82 l 0 51 149 150 c 102 104 152 162 160 186 6 19 24 116 41 215 17 99 37 190 45 202 8 12 184 192 392 401 400 401 442 437 594 498 150 61 187 66 554 74 433 10 540 21 888 90 60 12 111 19 114 16 9 -9 -43 -123 -97 -216 -116 -195 -267 -359 -429 -468 -191 -128 -470 -248 -686 -296 -63 -14 -105 -18 -280 -30 -68 -5 -69 -5 -64 -11 15 -15 143 -36 262 -44 482 -32 917 142 1320 529 74 72 138 130 142 130 11 0 -55 -110 -127 -212 -88 -123 -259 -298 -361 -367 -169 -115 -368 -198 -582 -242 -143 -30 -431 -37 -575 -14 -58 9 -116 18 -130 20 -30 5 -267 82 -362 118 -38 15 -68 22 -68 17 0 -24 179 -147 283 -194 44 -20 77 -42 81 -52 5 -17 12 -115 32 -435 l 6 -95 -137 -135 -137 -134 -56 3 c -72 4 -107 -9 -132 -50 -38 -62 -18 -141 43 -178 40 -25 61 -25 114 -1 50 23 73 62 73 125 0 45 0 45 129 160 71 64 134 116 141 116 7 0 70 -52 141 -116 129 -115 129 -115 129 -160 0 -63 23 -102 73 -125 51 -23 69 -23 108 -4 64 34 87 120 49 183 -25 41 -60 54 -131 50 l -57 -3 -141 138 -141 138 0 248 c 0 136 3 250 6 253 3 3 20 2 37 -3 18 -4 68 -12 112 -16 l 80 -8 17 -100 c 9 -55 17 -100 18 -101 4 -7 350 -344 415 -405 243 -227 219 -198 216 -253 -2 -41 2 -53 25 -77 33 -34 73 -44 119 -29 43 14 65 44 65 88 0 69 -60 130 -118 119 -21 -4 -44 14 -146 112 -67 65 -166 158 -222 207 -55 49 -142 128 -193 176 l -92 87 -9 63 c -5 35 -10 75 -10 90 l 0 28 114 0 c 148 0 278 18 408 56 13 4 18 0 18 -15 0 -42 54 -190 106 -291 94 -181 226 -344 425 -525 73 -66 158 -143 188 -171 l 56 -52 -35 -21 c -51 -31 -347 -144 -480 -184 -313 -93 -614 -142 -940 -152 -556 -17 -1069 92 -1525 325 -607 310 -1052 779 -1328 1402 -132 298 -229 696 -259 1068 -9 121 -7 331 6 550 3 41 -3 8 -14 -75 -10 -83 -19 -155 -19 -161 -1 -6 -12 -16 -25 -22 -18 -8 -24 -18 -22 -36 2 -14 -3 -27 -10 -30 -8 -3 -11 0 -7 9 3 8 0 15 -6 15 -13 0 -9 269 5 365 4 27 4 48 1 45 -7 -7 -33 -267 -42 -425 -12 -212 31 -583 104 -893 51 -218 202 -597 311 -784 433 -737 1161 -1260 1995 -1432 337 -69 632 -88 1021 -66 z m -2472 1742 c 49 49 74 56 229 65 l 117 6 136 151 c 203 225 313 334 352 347 23 7 81 9 169 6 l 134 -6 37 34 c 39 35 330 329 495 500 96 100 97 100 97 151 l 0 51 -248 -251 c -137 -138 -280 -283 -318 -322 l -69 -72 -193 -7 c -140 -5 -194 -11 -200 -20 -6 -11 -115 -128 -357 -383 -39 -41 -78 -78 -88 -83 -10 -6 -71 -15 -135 -21 l -118 -11 -48 34 c -38 27 -57 34 -95 34 -85 0 -121 -34 -124 -117 -2 -37 3 -52 23 -73 32 -35 75 -54 124 -55 32 0 45 7 80 42 z m -244 576 c 21 10 43 33 56 57 26 51 31 52 320 61 l 231 7 106 97 105 97 84 6 c 46 4 141 7 213 7 l 130 0 142 142 143 143 0 101 c 0 86 -24 477 -33 539 -5 33 -15 -76 -32 -340 -9 -137 -18 -259 -20 -270 -2 -11 -57 -73 -122 -137 l -118 -118 -155 -1 c -85 -1 -186 2 -225 6 l -70 7 -120 117 c -66 65 -214 205 -329 312 -115 107 -251 235 -302 284 -104 99 -127 113 -37 23 31 -32 55 -59 52 -62 -2 -2 -35 25 -74 60 -38 35 -72 64 -75 64 -3 0 46 -53 110 -118 63 -65 220 -227 348 -360 l 234 -242 -39 -1 c -131 -5 -409 3 -424 12 -11 5 -60 44 -110 85 -69 58 -89 80 -83 92 36 84 -18 174 -103 171 -23 -1 -21 -3 11 -9 53 -10 87 -50 84 -98 -2 -47 -17 -82 -35 -82 -7 0 -13 -4 -13 -8 0 -4 -9 -8 -20 -8 -11 0 -20 4 -20 8 0 10 -23 6 -31 -5 -9 -13 -46 13 -58 40 -21 45 -13 91 19 123 18 18 25 30 17 30 -35 0 -72 -76 -62 -127 3 -18 19 -46 36 -63 26 -26 38 -30 82 -30 l 52 0 111 -104 111 -104 279 -1 279 -1 33 -34 33 -33 -56 -66 c -66 -77 -41 -70 -320 -92 -263 -20 -278 -20 -301 6 -49 54 -124 65 -173 24 -117 -99 1 -276 139 -207 z m 2557 820 c -47 49 -97 146 -129 247 -29 90 -32 112 -32 230 0 155 20 236 90 378 65 129 168 253 280 337 28 22 54 49 57 62 3 13 15 136 27 273 11 137 32 349 45 470 13 121 27 258 31 305 l 6 85 -78 -2 c -107 -2 -215 -46 -389 -160 -61 -41 -53 -42 19 -4 44 24 55 27 60 15 3 -8 1 -14 -4 -14 -15 0 -12 -30 2 -30 7 0 0 -12 -15 -25 -33 -29 -29 -31 18 -10 19 8 70 28 113 44 42 16 85 32 94 36 16 6 18 1 18 -46 0 -29 -5 -91 -10 -138 -10 -86 -39 -352 -65 -596 -8 -71 -14 -131 -14 -133 -1 -1 -55 -58 -121 -127 -66 -68 -136 -150 -156 -181 -57 -89 -103 -200 -114 -272 -15 -103 -12 -303 5 -390 29 -145 117 -282 228 -357 58 -39 73 -38 34 3 z m -1425 119 c -4 190 -9 199 -11 18 -1 -108 -4 -145 -12 -132 -5 9 -7 22 -3 29 4 7 3 8 -4 4 -6 -3 -16 2 -21 13 -7 13 -17 17 -31 14 -19 -5 -20 0 -22 123 l -2 129 -6 -125 -5 -125 -30 -6 c -17 -4 -67 -7 -112 -8 -80 -1 -82 0 -131 38 -27 22 -105 92 -173 157 -199 189 -232 217 -112 94 81 -83 112 -121 111 -137 -2 -21 -3 -22 -22 -5 -67 56 -257 248 -262 264 -3 11 -8 17 -11 15 -12 -13 36 -68 241 -275 l 220 -222 201 0 200 0 -3 137 z m -1756 11 c 1 7 0 8 -3 2 -2 -5 -9 -8 -14 -4 -5 3 -9 0 -9 -6 0 -15 23 -7 26 8 z m 4709 127 c 45 37 77 73 88 99 27 60 71 235 112 451 65 337 91 465 110 539 7 26 6 28 -11 21 -47 -20 -327 -104 -356 -107 l -33 -3 -12 80 c -16 101 -69 409 -93 540 -10 55 -26 161 -34 235 -22 183 -43 276 -71 308 -22 25 -29 27 -122 30 -71 3 -126 -2 -200 -17 -102 -21 -266 -78 -306 -106 -21 -15 -21 -15 11 -15 21 0 31 -4 27 -10 -5 -8 10 -9 44 -4 83 11 429 10 440 -1 6 -6 20 -82 31 -170 31 -229 84 -543 126 -743 l 37 -172 -42 -36 c -23 -20 -39 -39 -36 -43 11 -11 259 -11 328 0 38 6 71 9 74 5 3 -3 -8 -69 -25 -148 -17 -79 -34 -161 -37 -183 -19 -111 -99 -457 -125 -535 -35 -103 -36 -108 -12 -88 9 8 48 41 87 73 z m -2968 113 c -2 15 -4 2 -4 -28 0 -30 2 -43 4 -28 2 16 2 40 0 56 z m -100 20 c -3 9 -5 1 -5 -18 0 -19 2 -27 5 -18 2 10 2 26 0 36 z m 90 64 c -3 7 -5 2 -5 -12 0 -14 2 -19 5 -12 2 6 2 18 0 24 z m -1670 26 c -3 9 -5 1 -5 -18 0 -19 2 -27 5 -18 2 10 2 26 0 36 z m 1570 0 c -3 9 -5 1 -5 -18 0 -19 2 -27 5 -18 2 10 2 26 0 36 z m -1649 157 c 0 11 -6 -7 -14 -40 -7 -33 -13 -73 -12 -90 0 -17 6 1 14 40 7 39 13 79 12 90 z m 89 -113 c -3 8 -6 5 -6 -6 -1 -11 2 -17 5 -13 3 3 4 12 1 19 z m 20 150 c -2 13 -4 5 -4 -17 -1 -22 1 -32 4 -23 2 10 2 28 0 40 z m -100 10 c -3 8 -6 5 -6 -6 -1 -11 2 -17 5 -13 3 3 4 12 1 19 z m 10 60 c -3 7 -5 2 -5 -12 0 -14 2 -19 5 -12 2 6 2 18 0 24 z m 100 46 c -2 15 -4 2 -4 -28 0 -30 2 -43 4 -28 2 16 2 40 0 56 z m 10 184 c -2 29 -3 8 -3 -47 0 -55 1 -79 3 -53 2 26 2 71 0 100 z m 0 100 c -3 7 -5 2 -5 -12 0 -14 2 -19 5 -12 2 6 2 18 0 24 z m 2998 1066 c -3 3 -11 0 -18 -7 -9 -10 -8 -11 6 -5 10 3 15 9 12 12 z m -435 498 c 0 2 -9 0 -20 -6 -11 -6 -20 -13 -20 -16 0 -2 9 0 20 6 11 6 20 13 20 16 z m 70 40 c 0 2 -9 0 -20 -6 -11 -6 -20 -13 -20 -16 0 -2 9 0 20 6 11 6 20 13 20 16 z m 389 248 c 232 153 432 276 448 276 5 0 -8 -35 -28 -78 -46 -95 -85 -216 -99 -302 -12 -81 -13 -140 -1 -121 7 10 16 11 42 3 19 -6 47 -12 64 -14 l 30 -3 7 75 c 12 133 89 325 191 475 47 69 167 212 226 270 40 39 59 75 21 40 -11 -10 -28 -15 -40 -12 -11 3 -20 1 -20 -3 0 -14 -68 -43 -85 -36 -9 3 -14 2 -11 -3 7 -11 -22 -23 -35 -15 -5 3 -9 0 -9 -5 0 -6 -16 -18 -36 -26 -46 -19 -53 -19 -28 0 10 9 -6 4 -36 -11 -30 -15 -57 -31 -58 -35 -2 -5 -8 -7 -13 -3 -5 3 -9 0 -9 -7 0 -7 -3 -10 -6 -6 -9 8 -264 -124 -394 -205 -170 -105 -281 -180 -276 -186 3 -3 14 2 23 10 10 9 33 23 50 32 31 16 34 15 53 -4 17 -17 18 -21 5 -26 -22 -9 -18 -23 5 -17 20 5 25 -4 14 -31 -3 -8 -12 -12 -19 -10 -7 3 -16 -3 -19 -14 -6 -19 -93 -84 -248 -186 -49 -31 -88 -59 -88 -61 0 -7 137 80 379 239 z m -269 2 c 0 2 -9 0 -20 -6 -11 -6 -20 -13 -20 -16 0 -2 9 0 20 6 11 6 20 13 20 16 z m 50 30 c 0 2 -9 0 -20 -6 -11 -6 -20 -13 -20 -16 0 -2 9 0 20 6 11 6 20 13 20 16 z m 45 24 c 3 6 -1 7 -9 4 -18 -7 -21 -14 -7 -14 6 0 13 4 16 10 z m -3047 1193 c 8 9 406 945 449 1055 4 9 -13 12 -63 12 l -69 0 -60 -142 -60 -143 -273 0 -274 0 -60 143 -61 142 -65 0 c -47 0 -63 -3 -59 -12 54 -129 441 -1037 448 -1050 8 -14 22 -18 73 -18 39 0 68 5 74 13 z m 1377 52 l 0 60 -176 3 -176 2 -6 137 c -4 75 -7 288 -7 475 l 0 338 -60 0 -60 0 0 -475 0 -475 -175 0 -175 0 0 -65 0 -65 418 2 417 3 0 60 z m 413 183 l 2 242 139 0 c 76 0 226 -3 334 -7 l 197 -6 2 -236 3 -236 63 -3 62 -3 0 541 0 540 -65 0 -65 0 0 -235 0 -235 -335 0 -335 0 0 235 0 235 -65 0 -65 0 0 -533 c 0 -294 3 -537 7 -541 4 -4 32 -6 63 -4 l 55 3 3 243 z m 1957 -183 l 0 60 -307 3 -308 2 0 171 0 172 262 -4 263 -4 3 63 3 62 -266 0 -265 0 0 185 0 185 305 0 305 0 0 60 0 60 -370 0 -370 0 0 -533 c 0 -294 3 -537 7 -540 4 -4 171 -6 372 -5 l 366 3 0 60 z m 854 375 c 206 242 377 442 380 445 4 2 7 -195 7 -438 l -1 -442 60 0 60 0 3 537 2 538 -64 0 -63 0 -383 -448 -383 -447 7 60 c 3 33 9 234 12 447 l 7 388 -67 0 -66 0 0 -533 c 0 -294 3 -537 7 -540 3 -4 29 -7 58 -7 l 51 0 373 440 z m 1537 -100 c 78 184 180 426 227 538 l 85 203 -70 -3 -70 -3 -60 -143 -60 -142 -272 0 -272 0 -60 142 -60 143 -62 3 c -34 2 -62 -1 -62 -6 0 -4 99 -242 221 -528 121 -285 223 -525 226 -532 4 -9 26 -12 77 -10 l 71 3 141 335 z M 4820 -8770 c -11 11 -20 29 -20 40 0 25 34 60 59 60 27 0 51 -27 51 -56 0 -27 -32 -64 -55 -64 -8 0 -24 9 -35 20 z M 5610 -8770 c -36 36 -17 100 31 100 25 0 59 -35 59 -60 0 -23 -33 -60 -55 -60 -8 0 -24 9 -35 20 z M 6256 -8761 c -21 23 -18 60 5 74 13 8 24 6 43 -6 31 -21 35 -62 7 -77 -27 -14 -35 -13 -55 9 z M 2296 -6163 c -11 11 -6 23 9 23 8 0 15 -4 15 -9 0 -13 -16 -22 -24 -14 z M 3042 -7564 c -12 8 -22 24 -22 34 0 21 35 50 62 50 48 0 66 -74 22 -90 -33 -13 -36 -13 -62 6 z M 2830 -6970 c -11 11 -20 28 -20 38 0 46 79 71 100 33 35 -66 -29 -122 -80 -71 z M 2827 -6439 c -9 6 -17 17 -17 24 0 11 6 9 21 -6 24 -24 22 -32 -4 -18 z M 3110 -6135 c -24 25 -41 47 -39 50 3 3 25 -15 48 -41 56 -59 48 -67 -9 -9 z M 3001 -6029 c -27 29 -48 56 -45 58 3 3 28 -18 56 -47 28 -29 48 -55 45 -58 -3 -3 -28 18 -56 47 z M 4016 -6213 c -6 14 -5 15 5 6 7 -7 10 -15 7 -18 -3 -3 -9 2 -12 12 z M 3616 -6151 c -12 13 -14 21 -6 26 13 8 65 -24 54 -33 -3 -4 -9 -1 -11 6 -3 6 -9 12 -14 12 -4 0 -6 -7 -3 -15 8 -20 1 -19 -20 4 z M 5410 -3161 c 0 8 44 41 54 41 3 0 3 -6 0 -14 -6 -16 -54 -40 -54 -27 z M 2068 -1742 c -42 103 -92 224 -111 270 l -36 82 219 0 c 121 0 220 -1 220 -3 0 -1 -23 -57 -51 -122 -28 -66 -77 -186 -108 -267 l -57 -147 -76 187 z M 8111 -1857 c -13 34 -62 151 -108 260 -45 109 -83 200 -83 203 0 2 97 4 215 4 118 0 215 -4 215 -9 0 -4 -27 -73 -61 -152 -34 -79 -79 -191 -101 -249 -22 -58 -43 -108 -47 -112 -3 -4 -17 21 -30 55 z " />
  </g>
</svg>